<?xml version="1.0" encoding="UTF-8" standalone="no"?>
<!DOCTYPE svg PUBLIC "-//W3C//DTD SVG 20010904//EN" "http://www.w3.org/TR/2001/REC-SVG-20010904/DTD/svg10.dtd">
<svg version="1.0" xmlns="http://www.w3.org/2000/svg" width="175.000000pt" height="185.000000pt" viewBox="0 0 175.000000 185.000000" preserveAspectRatio="xMidYMid meet">
<metadata>
Created by potrace 1.12, written by Peter Selinger 2001-2015
</metadata>
<g transform="translate(0.000000,185.000000) scale(0.100000,-0.100000)" fill="#000000" stroke="none">
<path d="M635 1830 c-22 -4 -74 -13 -115 -20 -159 -25 -300 -89 -386 -174 -81 -81 -109 -157 -108 -296 1 -111 25 -179 88 -242 34 -35 41 -38 93 -38 53 0 59 3 95 40 21 23 38 45 38 50 0 5 -21 15 -47 22 -64 16 -133 84 -162 161 -26 72 -26 92 0 162 44 117 132 176 276 183 51 3 89 0 95 -6 10 -10 -1 -68 -32 -182 -5 -19 -23 -91 -40 -160 -39 -163 -89 -350 -100 -375 -5 -11 -14 -38 -21 -60 -20 -69 -47 -112 -83 -134 -36 -22 -46 -38 -39 -58 4 -10 40 -13 138 -13 147 0 165 -7 165 -58 0 -74 76 -206 147 -255 87 -60 127 -70 288 -75 l150 -4 65 -63 c139 -133 308 -215 445 -215 76 0 111 14 131 51 16 32 19 145 4 154 -6 4 -32 -7 -58 -24 -148 -94 -278 -95 -384 -2 -46 40 -94 110 -82 120 5 4 29 13 54 20 200 56 336 245 285 396 -26 74 -66 128 -190 250 -123 122 -162 182 -151 239 8 40 47 79 108 106 42 18 53 19 90 9 24 -6 58 -22 76 -35 29 -23 32 -30 32 -80 0 -32 4 -54 11 -54 21 0 82 73 106 128 20 46 22 60 13 82 -13 31 -34 43 -110 60 -46 10 -68 9 -133 -4 -142 -30 -211 -63 -285 -137 -44 -45 -82 -127 -82 -180 0 -64 74 -173 213 -314 82 -83 129 -144 141 -183 10 -31 -9 -84 -42 -115 -30 -28 -121 -73 -169 -83 -34 -7 -31 -12 -143 241 -32 72 -72 160 -89 198 -17 37 -31 70 -31 72 0 3 -9 24 -19 48 -11 23 -35 77 -55 120 -19 42 -39 77 -45 77 -27 0 -6 28 45 60 71 45 164 144 192 203 16 34 22 65 22 114 -1 147 -80 232 -250 268 -78 16 -95 17 -155 5z m162 -150 c46 -28 65 -80 61 -165 -6 -130 -84 -244 -205 -301 -19 -10 -37 -23 -40 -30 -4 -12 13 -54 27 -64 17 -11 70 -114 145 -280 44 -96 108 -231 142 -299 35 -68 63 -129 63 -134 0 -6 -45 -8 -118 -5 -106 4 -124 8 -170 33 -68 37 -92 84 -92 182 0 40 6 86 15 106 18 44 72 107 91 107 20 0 34 31 20 45 -71 71 -184 31 -231 -82 -11 -25 -20 -33 -39 -33 -14 0 -27 4 -30 8 -3 5 15 76 40 158 55 184 89 298 115 389 11 39 29 99 40 135 10 36 24 83 30 105 6 22 15 48 20 57 5 10 9 22 9 27 0 5 4 21 10 35 12 32 51 35 97 6z"/>
</g>
</svg>